<?xml version="1.0" encoding="UTF-8"?>
<!DOCTYPE svg PUBLIC "-//W3C//DTD SVG 1.1//EN" "http://www.w3.org/Graphics/SVG/1.1/DTD/svg11.dtd">
<!-- Creator: CorelDRAW -->
<svg xmlns="http://www.w3.org/2000/svg" xml:space="preserve" width="2048px" height="2048px" style="shape-rendering:geometricPrecision; text-rendering:geometricPrecision; image-rendering:optimizeQuality; fill-rule:evenodd; clip-rule:evenodd"
viewBox="0 0 2048 2048"
 xmlns:xlink="http://www.w3.org/1999/xlink">
 <defs>
  <style type="text/css">
   <![CDATA[
    .fil2 {fill:none}
    .fil1 {fill:#1E88E5}
    .fil0 {fill:#42A5F5}
    .fil6 {fill:#D50000}
    .fil5 {fill:#689F38;fill-rule:nonzero}
    .fil4 {fill:#8BC34A;fill-rule:nonzero}
    .fil8 {fill:#92B043;fill-rule:nonzero}
    .fil7 {fill:#FBD435;fill-rule:nonzero}
    .fil3 {fill:#FFEB3B;fill-rule:nonzero}
   ]]>
  </style>
   <clipPath id="id0">
    <path d="M1024 -0.0011811c565.541,0 1024,458.461 1024,1024 0,565.541 -458.461,1024 -1024,1024 -565.541,0 -1024,-458.461 -1024,-1024 0,-565.541 458.461,-1024 1024,-1024z"/>
   </clipPath>
 </defs>
 <g id="Layer_x0020_1">
  <metadata id="CorelCorpID_0Corel-Layer"/>
  <path class="fil0" d="M1024 -0.0011811c565.541,0 1024,458.461 1024,1024 0,565.541 -458.461,1024 -1024,1024 -565.541,0 -1024,-458.461 -1024,-1024 0,-565.541 458.461,-1024 1024,-1024z"/>
  <g style="clip-path:url(#id0)">
   <g id="_464389440">
    <g>
     <polygon id="_4601166081" class="fil1" points="1584,464 2719.88,1599.88 2719.88,1623.22 1584,487.334 "/>
     <polygon id="_460116632" class="fil1" points="1584,487.334 2719.88,1623.22 2719.88,2696.55 1584,1560.67 "/>
     <polygon id="_460117664" class="fil1" points="1584,1560.67 2719.88,2696.55 2719.88,2719.88 1584,1584 "/>
     <polygon id="_460117736" class="fil1" points="1584,1584 2719.88,2719.88 2696.55,2719.88 1560.67,1584 "/>
     <polygon id="_460117808" class="fil1" points="1560.67,1584 2696.55,2719.88 2159.88,2719.88 1024,1584 "/>
     <polygon id="_460117880" class="fil1" points="1024,1584 2159.88,2719.88 1623.22,2719.88 487.334,1584 "/>
     <polygon id="_460117952" class="fil1" points="487.334,1584 1623.22,2719.88 1599.88,2719.88 464,1584 "/>
    </g>
    <polygon id="_464389728" class="fil1" points="1024,464 1560.67,464 1584,464 1584,487.334 1584,1560.67 1584,1584 1560.67,1584 1024,1584 487.334,1584 464,1584 464,1560.67 464,818.966 818.044,464.922 818.044,464 818.966,464 "/>
   </g>
  </g>
  <path class="fil2" d="M1024 -0.0011811c565.541,0 1024,458.461 1024,1024 0,565.541 -458.461,1024 -1024,1024 -565.541,0 -1024,-458.461 -1024,-1024 0,-565.541 458.461,-1024 1024,-1024z"/>
  <path class="fil3" d="M1024 1160.35c-75.2859,0 -136.328,-61.0666 -136.328,-136.354 0,-75.2611 61.0418,-136.335 136.328,-136.335 75.3119,0 136.337,61.0737 136.337,136.335 0,75.2871 -61.0252,136.354 -136.337,136.354z"/>
  <path class="fil4" d="M818.044 464l742.622 0 23.3339 0 0 23.3339 0 1073.33 0 23.3339 -23.3339 0 -1073.33 0 -23.3339 0 0 -23.3339 0 -741.7 184.407 0c-14.341,51.8174 7.41615,132.092 56.1591,160.232 22.2662,12.8551 69.5327,30.8114 121.123,44.7969 -51.5989,13.976 -98.882,31.9359 -121.147,44.7839 -57.8729,33.4217 -77.7024,107.413 -44.289,165.234 33.3992,57.8374 107.413,77.6788 165.235,44.2477 22.2721,-12.848 61.4764,-44.8264 99.3922,-82.5225 -13.6843,51.6721 -21.7713,101.609 -21.7713,127.329 0,66.7796 54.1406,120.938 120.93,120.938 66.8032,0 120.945,-54.1583 120.945,-120.938 0,-25.702 -8.07875,-75.6036 -21.7465,-127.245 37.8803,37.6559 77.0422,69.5906 99.2918,82.4386 57.8622,33.3874 131.836,13.5662 165.235,-44.2477 33.3815,-57.8634 13.5662,-131.837 -44.2807,-165.243 -22.2555,-12.848 -69.5067,-30.7984 -121.073,-44.7815 51.5493,-13.9878 98.7816,-31.9252 121.031,-44.7674 57.8552,-33.4217 77.6788,-107.404 44.2866,-165.216 -33.3803,-57.8552 -107.36,-77.6528 -165.234,-44.2571 -22.2414,12.8339 -61.3772,44.7331 -99.2422,82.3631 13.6595,-51.6225 21.7311,-101.472 21.7311,-127.161 0,-66.8056 -54.1418,-120.954 -120.945,-120.954 -66.789,0 -120.93,54.1489 -120.93,120.954 0,25.7032 8.07757,75.6048 21.7536,127.263 -29.6398,-29.465 -84.3201,-55.4292 -106.819,-71.4993l0 -316.713z"/>
  <polygon class="fil5" points="795.633,818.966 464,818.966 818.966,464 818.966,795.633 818.966,818.966 "/>
  <path class="fil6" d="M887.668 1024c0,-75.2611 61.0418,-136.335 136.328,-136.335 75.3119,0 136.337,61.0737 136.337,136.335 0,75.2871 -61.0252,136.354 -136.337,136.354 -75.2859,0 -136.328,-61.0666 -136.328,-136.354zm500.097 210.018c33.3815,-57.8634 13.5662,-131.837 -44.2807,-165.243 -22.2555,-12.848 -69.5067,-30.7984 -121.073,-44.7815 51.5493,-13.9878 98.7816,-31.9252 121.031,-44.7674 57.8552,-33.4217 77.6788,-107.404 44.2866,-165.216 -33.3803,-57.8552 -107.36,-77.6528 -165.234,-44.2571 -22.2414,12.8339 -61.3772,44.7331 -99.2422,82.3631 13.6595,-51.6225 21.7311,-101.472 21.7311,-127.161 0,-66.8056 -54.1418,-120.954 -120.945,-120.954 -66.789,0 -120.93,54.1489 -120.93,120.954 0,25.7032 8.07757,75.6048 21.7536,127.263 -29.2429,-29.0705 -82.8568,-54.7323 -105.897,-70.8461l0 14.2665 0 23.3339 -23.3339 0 -147.226 0c-14.341,51.8174 7.41615,132.092 56.1591,160.232 22.2662,12.8551 69.5327,30.8114 121.123,44.7969 -51.5989,13.976 -98.882,31.9359 -121.147,44.7839 -57.8729,33.4217 -77.7024,107.413 -44.289,165.234 33.3992,57.8374 107.413,77.6788 165.235,44.2477 22.2721,-12.848 61.4764,-44.8264 99.3922,-82.5225 -13.6843,51.6721 -21.7713,101.609 -21.7713,127.329 0,66.7796 54.1406,120.938 120.93,120.938 66.8032,0 120.945,-54.1583 120.945,-120.938 0,-25.702 -8.07875,-75.6036 -21.7465,-127.245 37.8803,37.6559 77.0422,69.5906 99.2918,82.4386 57.8622,33.3874 131.836,13.5662 165.235,-44.2477z"/>
  <path class="fil7" d="M1024 887.661c75.3095,0.0011811 136.334,61.0737 136.334,136.335 0,75.2859 -61.0241,136.352 -136.334,136.354l0 -272.688z"/>
  <path class="fil8" d="M1024 464l536.667 0 23.3339 0 0 23.3339 0 1073.33 0 23.3339 -23.3339 0 -536.667 0 0 -139.996 0.0401575 0.0011811c66.8032,0 120.945,-54.1583 120.945,-120.938 0,-25.702 -8.07875,-75.6036 -21.7465,-127.245 37.8803,37.6559 77.0422,69.5906 99.2918,82.4386 57.8622,33.3874 131.836,13.5662 165.235,-44.2477 33.3815,-57.8634 13.5662,-131.837 -44.2807,-165.243 -22.2555,-12.848 -69.5067,-30.7984 -121.073,-44.7815 51.5493,-13.9878 98.7816,-31.9252 121.031,-44.7674 57.8552,-33.4217 77.6788,-107.404 44.2866,-165.216 -33.3803,-57.8552 -107.36,-77.6528 -165.234,-44.2571 -22.2414,12.8339 -61.3772,44.7331 -99.2422,82.3631 13.6595,-51.6225 21.7311,-101.472 21.7311,-127.161 0,-66.8056 -54.1418,-120.954 -120.945,-120.954l-0.0401575 0.0011811 0 -139.996z"/>
  <path class="fil6" d="M1024 887.661c75.3095,0.0011811 136.334,61.0737 136.334,136.335 0,75.2859 -61.0241,136.352 -136.334,136.354l0 283.655 0.0401575 0.0011811c66.8032,0 120.945,-54.1583 120.945,-120.938 0,-25.702 -8.07875,-75.6036 -21.7465,-127.245 37.8803,37.6559 77.0422,69.5906 99.2918,82.4386 57.8622,33.3874 131.836,13.5662 165.235,-44.2477 33.3815,-57.8634 13.5662,-131.837 -44.2807,-165.243 -22.2555,-12.848 -69.5067,-30.7984 -121.073,-44.7815 51.5493,-13.9878 98.7816,-31.9252 121.031,-44.7674 57.8552,-33.4217 77.6788,-107.404 44.2866,-165.216 -33.3803,-57.8552 -107.36,-77.6528 -165.234,-44.2571 -22.2414,12.8339 -61.3772,44.7331 -99.2422,82.3631 13.6595,-51.6225 21.7311,-101.472 21.7311,-127.161 0,-66.8056 -54.1418,-120.954 -120.945,-120.954l-0.0401575 0.0011811 0 283.664z"/>
 </g>
</svg>
